<svg width="460" height="460" viewBox="0 0 460 460" fill="none" xmlns="http://www.w3.org/2000/svg">
<g filter="url(#filter0_d)">
<circle cx="210" cy="200" r="200" fill="#E6AC1A"/>
</g>
<path d="M382.5 205.5C382.5 298.838 307.059 374.5 214 374.5C120.941 374.5 45.5 298.838 45.5 205.5C45.5 112.162 120.941 36.5 214 36.5C307.059 36.5 382.5 112.162 382.5 205.5Z" stroke="black"/>
<path d="M326.5 201C326.5 278.089 269.597 340.5 199.5 340.5C129.403 340.5 72.5 278.089 72.5 201C72.5 123.911 129.403 61.5 199.5 61.5C269.597 61.5 326.5 123.911 326.5 201Z" stroke="black"/>
<rect x="110" y="45" width="16" height="315" fill="#E6AC1A"/>
<rect x="305" y="45" width="16" height="315" fill="#E6AC1A"/>
<rect x="206" width="16" height="315" fill="#E6AC1A"/>
<rect x="240" y="68" width="16" height="315" fill="#E6AC1A"/>
<rect x="153" y="68" width="16" height="315" fill="#E6AC1A"/>
<rect x="82" y="165" width="16" height="315" transform="rotate(-90 82 165)" fill="#E6AC1A"/>
<rect x="77" y="251" width="16" height="315" transform="rotate(-90 77 251)" fill="#E6AC1A"/>
<rect x="42" y="173" width="16" height="315" transform="rotate(-90 42 173)" fill="#E6AC1A"/>
<rect x="24" y="243" width="16" height="315" transform="rotate(-90 24 243)" fill="#E6AC1A"/>
<rect x="30" y="292" width="16" height="315" transform="rotate(-90 30 292)" fill="#E6AC1A"/>
<g filter="url(#filter1_d)">
<ellipse cx="199.5" cy="200.5" rx="81.5" ry="86.5" fill="#ECBB3C"/>
<path d="M279.5 200.5C279.5 247.53 243.6 285.5 199.5 285.5C155.4 285.5 119.5 247.53 119.5 200.5C119.5 153.47 155.4 115.5 199.5 115.5C243.6 115.5 279.5 153.47 279.5 200.5Z" stroke="#F71A1A" stroke-width="3"/>
</g>
<ellipse cx="199.5" cy="204.5" rx="63.5" ry="71.5" fill="#ECBB3C"/>
<path d="M262.5 204.5C262.5 243.77 234.24 275.5 199.5 275.5C164.76 275.5 136.5 243.77 136.5 204.5C136.5 165.23 164.76 133.5 199.5 133.5C234.24 133.5 262.5 165.23 262.5 204.5Z" stroke="black" stroke-opacity="0.2"/>
<ellipse cx="206.5" cy="210" rx="43.5" ry="53" fill="#ECBB3C"/>
<path d="M249.5 210C249.5 239.092 230.16 262.5 206.5 262.5C182.84 262.5 163.5 239.092 163.5 210C163.5 180.908 182.84 157.5 206.5 157.5C230.16 157.5 249.5 180.908 249.5 210Z" stroke="black" stroke-opacity="0.2"/>
<ellipse cx="210" cy="212.5" rx="29" ry="30.5" fill="#ECBB3C"/>
<path d="M238.5 212.5C238.5 229.093 225.717 242.5 210 242.5C194.283 242.5 181.5 229.093 181.5 212.5C181.5 195.907 194.283 182.5 210 182.5C225.717 182.5 238.5 195.907 238.5 212.5Z" stroke="black" stroke-opacity="0.2"/>
<path d="M150.5 155.5C149.5 154.333 147.6 149.1 148 137.5L137.5 148C137.333 148.667 137.1 152.1 137.5 160.5C137.9 168.9 139.333 168.333 140 167L150.5 155.5Z" fill="white" stroke="black" stroke-opacity="0.01"/>
<defs>
<filter id="filter0_d" x="0" y="0" width="460" height="460" filterUnits="userSpaceOnUse" color-interpolation-filters="sRGB">
<feFlood flood-opacity="0" result="BackgroundImageFix"/>
<feColorMatrix in="SourceAlpha" type="matrix" values="0 0 0 0 0 0 0 0 0 0 0 0 0 0 0 0 0 0 127 0" result="hardAlpha"/>
<feOffset dx="20" dy="30"/>
<feGaussianBlur stdDeviation="15"/>
<feComposite in2="hardAlpha" operator="out"/>
<feColorMatrix type="matrix" values="0 0 0 0 0 0 0 0 0 0 0 0 0 0 0 0 0 0 0.25 0"/>
<feBlend mode="normal" in2="BackgroundImageFix" result="effect1_dropShadow"/>
<feBlend mode="normal" in="SourceGraphic" in2="effect1_dropShadow" result="shape"/>
</filter>
<filter id="filter1_d" x="78" y="84" width="283" height="293" filterUnits="userSpaceOnUse" color-interpolation-filters="sRGB">
<feFlood flood-opacity="0" result="BackgroundImageFix"/>
<feColorMatrix in="SourceAlpha" type="matrix" values="0 0 0 0 0 0 0 0 0 0 0 0 0 0 0 0 0 0 127 0" result="hardAlpha"/>
<feOffset dx="20" dy="30"/>
<feGaussianBlur stdDeviation="30"/>
<feComposite in2="hardAlpha" operator="out"/>
<feColorMatrix type="matrix" values="0 0 0 0 0 0 0 0 0 0 0 0 0 0 0 0 0 0 0.5 0"/>
<feBlend mode="normal" in2="BackgroundImageFix" result="effect1_dropShadow"/>
<feBlend mode="normal" in="SourceGraphic" in2="effect1_dropShadow" result="shape"/>
</filter>
</defs>
</svg>
